<?xml version="1.0" encoding="UTF-8"?>
<svg id="Capa_2" data-name="Capa 2" xmlns="http://www.w3.org/2000/svg" viewBox="0 0 934.37 193.73">
  <defs>
    <style>
      .cls-1 {
        fill: #fa0304;
      }

      .cls-1, .cls-2, .cls-3, .cls-4, .cls-5, .cls-6, .cls-7, .cls-8 {
        stroke-width: 0px;
      }

      .cls-9 {
        font-family: Humanist777BT-BlackCondensedB, 'Humnst777 BlkCn BT';
        font-size: 32.81px;
        font-weight: 800;
      }

      .cls-10 {
        letter-spacing: 0em;
      }

      .cls-11 {
        letter-spacing: .03em;
      }

      .cls-2 {
        fill: #020000;
      }

      .cls-3 {
        fill: #0375bf;
      }

      .cls-4 {
        fill: #0275bf;
      }

      .cls-5 {
        fill: #11a2e1;
      }

      .cls-12 {
        letter-spacing: .04em;
      }

      .cls-6 {
        fill: #f7fafb;
      }

      .cls-7 {
        fill: #0da5e6;
      }

      .cls-8 {
        fill: #fdc101;
      }
    </style>
  </defs>
  <g id="Capa_1-2" data-name="Capa 1">
    <path class="cls-3" d="m0,3.87c3.82-.03,7.63-.05,11.45-.09,15.31-.17,30.62-.58,45.93-.48.48,0,.95,0,1.43.02.92.02,1.41.54,1.51,1.41.06.47.04.95.04,1.43,0,54.37-.02,108.74-.03,163.11,0,5.98-.02,11.97-.02,17.95-2.7.06-5.4.16-8.1.16-3.9,0-7.79-.08-11.69-.08-3.85,0-7.71.1-11.56.09-3.9,0-7.79-.1-11.69-.1-3.81,0-7.61.11-11.42.1-1.6,0-3.2-.25-4.79.04.1-.82-.81-.89-1.07-1.44V3.87Zm37.48,65.41c-.1.15-.16.26-.24.34-1.21,1.24-2.89,1.62-4.35,2.41-4.55,2.49-9.36,4.42-13.96,6.82-2.31,1.21-4.7,2.28-6.98,3.57-.8.46-1.3,1.13-1.27,2.17.05,1.99.02,3.99.02,5.98,0,2.06.18,2.25,2.21,2.25,11.46,0,22.91,0,34.37,0,.22,0,.43,0,.65,0,1.12-.05,1.76-.5,1.72-1.75-.06-1.95,0-3.9-.02-5.85-.01-1.43-.35-1.79-1.76-1.76-7.2.12-14.4.07-21.59.49-1.08.06-2.21.33-3.47-.19,1.16-.7,2.14-1.37,3.19-1.89,4.4-2.18,8.8-4.38,13.31-6.36,2.8-1.23,5.35-3,8.22-4.14,1.59-.63,2.27-1.75,2.16-3.5-.12-1.94-.01-3.9-.03-5.85-.01-1.39-.41-1.79-1.77-1.8-11.8,0-23.61,0-35.41,0-1.38,0-1.77.39-1.78,1.77-.02,1.95-.01,3.9,0,5.85,0,1.41.41,1.89,1.86,1.86,5.24-.11,10.49-.31,15.73-.42,3.02-.06,6.05-.01,9.18-.01Zm-11.45,31.49s0-.06,0-.08c-4.47,0-8.94-.02-13.41,0-1.55,0-1.89.39-1.91,1.94-.02,1.86-.03,3.73,0,5.59.02,1.17.7,1.77,1.88,1.77,6.12,0,12.23-.04,18.35.01,2.64.02,5.3-.11,7.93.23,1.62.21,3.22.66,3.87,2.33.86,2.2,1.05,4.52.44,6.82-.17.65-.08,1.34-.5,1.97-1.11,1.68-2.8,2.22-4.62,2.26-8.24.21-16.48.42-24.72.2-2.15-.06-2.6.39-2.61,2.52,0,1.43,0,2.86,0,4.29,0,2.22.32,2.57,2.51,2.56,5.6-.02,11.19-.04,16.79-.07,2.78-.02,5.56,0,8.33-.11,4.01-.16,7.16-1.77,9.17-5.44,1.62-2.97,1.54-6.25,2.02-9.43.35-2.28-.16-4.59-.52-6.81-.27-1.68-.55-3.42-1.48-5.09-2.04-3.68-5.11-5.28-9.04-5.43-4.16-.15-8.33-.03-12.49-.03Zm4.1-78.96s0-.04,0-.06c-1.86,0-3.73,0-5.59,0-1.42,0-2.8.12-4.17.61-2.34.83-4.26,2.26-6.08,3.86-.95.84-1.26,2.09-1.87,3.12-.79,1.34-1.3,2.91-1.26,4.59.06,2.51.04,5.02-.01,7.53-.06,2.7,1.08,5.03,2.53,7.09,2.52,3.58,6.28,5.17,10.58,5.31,3.9.12,7.81.14,11.7,0,3.57-.13,6.88-1.06,9.52-3.78,2.06-2.11,3.46-4.49,3.7-7.42.23-2.8.22-5.63.04-8.44-.13-2.08-.51-4.06-1.67-5.92-2.43-3.9-5.89-6.06-10.39-6.46-2.32-.2-4.68-.04-7.02-.04Zm-.08,148.53c5.73,0,11.45,0,17.18,0,1.79,0,2.41-.61,2.41-2.35,0-1.52,0-3.03,0-4.55,0-1.89-.27-2.15-2.2-2.16-4.29,0-8.59,0-12.88,0-1.61,0-1.67-.1-1.74-1.68-.11-2.58,0-5.15-.38-7.74-.34-2.33-.56-4.64-1.76-6.69-.79-1.36-1.46-2.82-2.85-3.8-3.04-2.15-6.34-2.5-9.79-1.49-1.71.5-3.41,1.43-4.42,2.89-1.86,2.69-2.68,5.87-2.78,9.1-.17,5.37-.09,10.75-.07,16.12,0,1.96.49,2.36,2.49,2.36,5.6,0,11.19,0,16.79,0Z"/>
    <path class="cls-1" d="m1.07,187.43c-.36.04-.72.08-1.07.12,0-.52,0-1.04,0-1.56.26.55,1.17.62,1.07,1.44Z"/>
    <path class="cls-2" d="m234.82,2.91c5.12,0,10.24.02,15.36,0,5.13-.03,10.19.63,15.25,1.3,3.22.42,6.38,1.06,9.49,1.97,2.23.65,4.3,1.7,6.38,2.74,3.66,1.83,6.52,4.5,8.85,7.81,2.74,3.88,3.98,8.31,4.86,12.89.93,4.81.79,9.67.47,14.51-.28,4.29-1.83,8.24-3.41,12.22-1.38,3.45-3.37,6.47-5.55,9.38-2.54,3.39-5.96,5.78-9.69,7.8-2.43,1.32-4.98,2.17-7.64,2.78-.21.05-.45.04-.63.14-.33.17-.84.28-.81.7.02.24.42.53.72.67.98.46,1.98.85,2.97,1.29,3.48,1.53,5.31,4.51,6.84,7.75,1.98,4.21,1.88,8.71,1.8,13.2-.07,4-.9,7.89-1.6,11.8-.65,3.61-1.03,7.27-1.77,10.86-.68,3.29-.88,6.64-1,9.93-.14,3.89-.04,7.87,1.41,11.63,1.07,2.77,1.05,2.77-1.97,2.77-7.9,0-15.8,0-23.69,0-2.46,0-2.35-.02-2.86-2.45-.59-2.85-1.21-5.7-.91-8.6.48-4.55.89-9.11,1.65-13.63.6-3.57,1.08-7.17,1.7-10.74.41-2.34.8-4.67,1.17-7.01.68-4.31.58-8.59-.82-12.69-.85-2.48-2.78-4.33-5.18-5.67-2.14-1.19-4.46-1.59-6.79-2.02-4.98-.9-10.01-.8-15.04-.62-1.28.05-1.93.62-2.17,1.76-.29,1.34-.55,2.69-.75,4.05-.49,3.24-1.43,6.37-2.07,9.57-.67,3.28-1.64,6.5-2.02,9.85-.22,1.95-.86,3.85-1.31,5.77-.42,1.8-.76,3.61-1.25,5.39-.96,3.49-1.21,7.11-2.2,10.59-.7,2.47-1.15,5.02-1.69,7.55-.52,2.44-1.18,4.84-1.38,7.35-.07.92-.6,1.56-1.81,1.55-7.98-.05-15.97-.05-23.95,0-1.14,0-1.5-.4-1.27-1.45.44-2.05.87-4.1,1.33-6.15.6-2.68,1.2-5.36,1.83-8.03.81-3.42,1.19-6.93,2.18-10.32.77-2.62,1.15-5.36,1.76-8.03.78-3.43,1.36-6.9,2.16-10.33.92-3.97,1.98-7.91,2.54-11.98.37-2.7,1.22-5.34,1.84-8.01.43-1.88.81-3.78,1.24-5.66.77-3.43,1.16-6.94,2.17-10.33.55-1.84.69-3.81,1.25-5.65,1.02-3.39,1.19-6.94,2.15-10.34.94-3.29,1.51-6.69,2.24-10.04.91-4.19,1.68-8.41,2.69-12.59.8-3.29,1.61-6.59,2.04-9.98.33-2.63,1.11-5.2,1.71-7.79.43-1.84.94-3.65,1.34-5.5.33-1.54.74-1.96,2.34-1.96,6.51-.01,13.02,0,19.53,0,0,0,0-.01,0-.02Zm-.47,62.02c5.34.23,10.64-.28,15.93-.9,3.79-.45,7.05-2.19,9.91-4.41,1.95-1.51,3.62-3.53,4.72-5.98,1.24-2.77,2.25-5.55,2.68-8.53.46-3.18.38-6.37.12-9.58-.31-3.7-1.9-6.65-4.71-8.93-2.68-2.17-6.03-2.81-9.31-3.16-5.87-.64-11.78-.21-17.67-.24-.95,0-1.42.46-1.66,1.29-.88,3.11-1.18,6.33-1.89,9.47-.41,1.8-.75,3.62-1.2,5.41-.83,3.33-1.71,6.64-2.16,10.06-.15,1.14-.41,2.28-.67,3.4-.78,3.34-1.62,6.66-2.35,10.01-.38,1.76-.09,2.05,1.75,2.09,2.17.04,4.33.01,6.5.01Z"/>
    <path class="cls-2" d="m99.28,147.05c-10.48,0-19.33,0-28.19,0-1.88,0-1.73.02-1.43-1.78.45-2.71,1.06-5.39,1.77-8.02,1.11-4.1,1.6-8.31,2.61-12.42.65-2.64,1.13-5.36,1.82-7.98.9-3.4,1.09-6.93,2.13-10.3.79-2.57,1.04-5.29,1.75-7.89,1.11-4.09,1.64-8.3,2.62-12.42.99-4.15,2.11-8.29,2.61-12.57.31-2.65,1.37-5.21,1.86-7.85.57-3.07,1.49-6.06,1.91-9.17.4-2.96,1.29-5.83,1.94-8.74.43-1.92.83-3.85,1.28-5.77.62-2.67.82-5.4,1.61-8.05.78-2.61,1-5.4,1.79-8.01.99-3.3,1.21-6.73,2.1-10.06.71-2.66,1.34-5.38,1.8-8.13.23-1.39.68-2.73.99-4.11.09-.4.35-.55.69-.69.5-.21,1.02-.17,1.54-.17,13.19,0,26.38-.08,39.58.04,4.97.04,9.84.97,14.71,2.17,3.88.95,7.36,2.56,10.77,4.45,1.22.68,2.44,1.45,3.25,2.66.41.62,1.14.91,1.6,1.45,2.77,3.27,4.97,6.79,6.25,10.99,2.06,6.75,2.32,13.61,1.96,20.52-.2,3.82-.65,7.63-1.35,11.41-.47,2.54-.57,5.15-.91,7.71-.34,2.6-.95,5.15-1.41,7.72-.39,2.16-.79,4.32-1.18,6.47-.56,3.04-1.15,6.07-1.76,9.09-.53,2.65-.99,5.32-1.7,7.92-1.14,4.17-1.73,8.47-3.16,12.58-1.58,4.56-2.87,9.2-5.05,13.54-2.34,4.66-5.06,9-8.56,12.93-2.51,2.82-5.36,5.2-8.56,6.88-4.09,2.16-8.3,4.06-13.18,4.6-12.04,1.33-24.09.76-34.51.97Zm32.31-121.97c0-.06,0-.12,0-.19-2.08,0-4.16-.02-6.25,0-2.76.03-2.76.05-3.3,2.78-.04.21-.15.4-.2.61-.44,1.91-.85,3.83-1.33,5.73-.42,1.68-.43,3.45-.88,5.09-.91,3.29-1.45,6.66-2.37,9.95-1.05,3.79-1.47,7.71-2.37,11.55-.8,3.41-1.6,6.83-2.28,10.28-.67,3.39-1.3,6.8-2.13,10.17-.64,2.61-1.24,5.24-1.78,7.88-.57,2.76-.99,5.55-1.65,8.3-.44,1.82-.9,3.65-1.25,5.5-.4,2.12-1.08,4.2-1.45,6.35-.28,1.61-.43,3.26-.83,4.83-.96,3.73-1.87,7.46-2.56,11.24-.29,1.58-.15,1.72,1.44,1.75,6.64.15,13.26.02,19.88-.45,4.36-.31,8-2.22,11.4-4.68,1.62-1.17,2.81-2.88,4.01-4.49,1.87-2.52,2.84-5.51,3.82-8.43,1.05-3.14,1.63-6.44,2.46-9.67.56-2.2,1.09-4.42,1.68-6.61.61-2.24,1.16-4.48,1.57-6.76.38-2.07.77-4.14,1.22-6.2.63-2.88,1.27-5.75,1.99-8.61.65-2.55.64-5.2,1.23-7.77.75-3.27,1.05-6.64,1.75-9.92.3-1.4.35-2.81.65-4.2.53-2.46.68-5,.63-7.47-.06-2.58-.26-5.26-1.39-7.69-.81-1.74-1.59-3.61-3.05-4.81-2.93-2.42-6.34-3.98-10.24-4.07-2.82-.07-5.63-.01-8.45-.01Z"/>
    <path class="cls-2" d="m609.73,86.71c-3.87.19-7.72-.04-11.56-.48-1.24-.14-1.72.36-1.88,1.53-.53,4.07-1.75,8-2.59,12.01-.51,2.45-1.13,4.87-1.51,7.36-.42,2.76-1.23,5.47-1.78,8.22-.63,3.09-1.47,6.12-2.01,9.23-.65,3.74-1.58,7.43-2.4,11.14-.55,2.48-1.3,4.92-1.55,7.47-.08.82-.31,1.61-.49,2.41-.25,1.08-.86,1.47-1.94,1.46-4.6-.03-9.2-.01-13.8-.01-3.3,0-6.6,0-9.89,0-1.75,0-1.65-.04-1.42-1.74.42-3.23,1.17-6.37,1.92-9.53.61-2.6,1.11-5.23,1.74-7.83.65-2.69.94-5.44,1.64-8.13.88-3.38,1.52-6.83,2.37-10.22.45-1.81.52-3.67.99-5.49.87-3.38,1.46-6.85,2.36-10.22.71-2.64.94-5.35,1.59-7.99.87-3.52,1.67-7.06,2.47-10.59.32-1.43.65-2.87.83-4.33.39-3.1,1.33-6.07,1.95-9.11.67-3.34,1.61-6.62,2.12-10.01.4-2.68,1.22-5.29,1.75-7.96.68-3.43,1.7-6.78,2.16-10.26.35-2.68,1.16-5.3,1.75-7.96.75-3.41,1.69-6.77,2.17-10.25.37-2.64,1.14-5.22,1.74-7.83.24-1.05.62-2.08.75-3.14.14-1.12.78-1.46,1.74-1.52.35-.02.69-.02,1.04-.02,7.81,0,15.62-.07,23.43,0,5.16.04,10.33.13,15.48.47,3.82.25,7.59.99,11.36,1.82,3.79.83,7.17,2.4,10.44,4.24,2.54,1.43,4.67,3.56,6.31,6,3.28,4.87,5.29,10.18,5.87,16.12.38,3.9.59,7.79.34,11.66-.27,4.29-.43,8.65-1.81,12.79-.66,1.99-1.59,3.9-2.21,5.9-.99,3.17-2.89,5.85-4.68,8.52-1.69,2.53-3.78,4.84-6.17,6.87-2.94,2.49-6.21,4.39-9.73,5.76-2.55,1-5.32,1.52-8.04,1.98-6.89,1.17-13.84,1.84-20.84,1.67Zm8.29-63.41c-2.12,0-4.25.05-6.37-.02-1.08-.03-1.69.51-1.91,1.4-.63,2.59-1.29,5.18-1.66,7.81-.36,2.53-1.06,4.98-1.55,7.48-.65,3.29-1.76,6.5-2.27,9.8-.68,4.4-1.78,8.7-2.83,13.01-.39,1.6-.25,1.83,1.42,2.03.6.07,1.21.15,1.81.17,5.34.22,10.64-.12,15.95-.83,4.6-.61,8.26-2.58,11.28-6.16,2.5-2.96,3.74-6.36,4.47-9.97,1.04-5.12,1.05-10.3.15-15.48-.76-4.37-3.64-7.16-7.8-8.27-3.53-.93-7.09-1.02-10.68-.98Z"/>
    <path class="cls-2" d="m448.84,0c4.84,0,9.68,0,14.52,0,1.2.73,2.6.75,3.92.91,4.86.59,9.5,1.69,13.88,4.06,3.84,2.08,7.02,4.86,9.44,8.37,2.19,3.18,3.75,6.71,4.82,10.51,2.02,7.16,2.26,14.42,1.97,21.75-.07,1.77-.33,3.53-.51,5.3-.1.96-.62,1.29-1.58,1.29-7.2-.03-14.41-.01-21.61-.02-1.39,0-1.71-.31-1.53-1.72.29-2.33.34-4.67.4-7.01.1-3.86.08-7.7-.56-11.53-.62-3.7-1.98-6.95-5-9.34-.79-.62-1.67-1.1-2.64-1.32-2.02-.45-4.06-.87-6.11-1.17-2.39-.34-4.7.17-7,.86-4.91,1.46-8.58,4.52-10.75,9.02-1.49,3.08-2.78,6.32-3.65,9.67-1.25,4.84-2.9,9.56-4.26,14.37-.75,2.65-1.26,5.38-1.99,8.05-.6,2.21-1.2,4.42-1.71,6.65-.61,2.65-1.13,5.32-1.71,7.98-.8,3.67-1.67,7.33-2.44,11.01-.44,2.12-.47,4.3-.9,6.43-.74,3.64-1.3,7.32-1.98,10.97-.69,3.71-.58,7.41.07,11.11.4,2.3,1.02,4.48,2.32,6.51,1.34,2.1,3.15,3.44,5.38,4.23,4.43,1.59,9.03,2.36,13.62,1.04,3.25-.93,6.2-2.44,8.69-5.05,3.62-3.79,5.54-8.4,7.32-13.09,1-2.64,1.48-5.49,2.03-8.28.46-2.36.49-2.49,2.9-2.49,6.99,0,13.97,0,20.96,0,1.68,0,1.82.11,1.53,1.79-.79,4.6-2.11,9.06-3.34,13.55-1.05,3.84-3.01,7.23-4.48,10.85-.74,1.83-1.78,3.65-3.2,5.13-.42.44-.43,1.03-.77,1.48-2.9,3.78-6.26,7.09-10.23,9.75-4.19,2.81-8.84,4.63-13.72,5.78-4.82,1.14-9.75,1.37-14.71,1.3-3.66-.05-7.28-.46-10.81-1.25-4.77-1.07-9.47-2.39-13.75-4.99-2.32-1.41-4.39-3.11-6.2-5-2.78-2.9-4.69-6.42-6.14-10.21-2.66-6.96-2.99-14.15-2.48-21.45.17-2.42.17-4.86.45-7.27.33-2.83.86-5.64,1.32-8.45.41-2.47.76-4.95,1.29-7.4.85-3.93,1.31-7.92,2.09-11.87.92-4.7,2.28-9.29,3.06-14.03.52-3.14,1.61-6.18,2.34-9.29.46-1.93,1.12-3.8,1.52-5.76.55-2.75,1.82-5.29,2.72-7.93,1.39-4.04,3.32-7.85,5.46-11.51,1.94-3.33,4.19-6.49,6.75-9.45,2.17-2.51,4.6-4.65,7.29-6.44,2.59-1.72,5.33-3.25,8.36-4.17,2.8-.85,5.65-1.45,8.55-1.86.3-.04.61-.06.77-.39Z"/>
    <path class="cls-4" d="m649.29,120.24c-.18-.58.2-1.01.46-1.43,1.29-2.04,2.67-4.02,3.93-6.08,1.62-2.66,3.36-5.28,4.69-8.08,1.89-4,3.88-7.95,5.57-12.06,1.69-4.1,2.88-8.33,4.37-12.47,1.36-3.81,2.16-7.75,3.28-11.62.69-2.38,1.44-4.75,2.14-7.13.77-2.63,1.28-5.33,2.26-7.9,1.54-4.02,2.35-8.29,4.4-12.12,1.67-3.14,3.25-6.3,5.27-9.27,1.49-2.19,3.21-4.2,4.87-6.19,1.86-2.21,4.11-4.16,6.43-6,2.6-2.07,5.4-3.76,8.19-5.51,4.53-2.84,9.41-4.96,14.31-7.03,3.95-1.66,8.16-2.61,12.21-4,4.48-1.54,9.03-1.42,13.63-1.15,1.56.09,3.12.1,4.67.14-1.46,1.46-3.34,2.33-4.98,3.5-2.94,2.1-6.11,3.86-9.01,6.05-2.35,1.77-4.68,3.58-6.81,5.56-3.76,3.51-7.03,7.48-9.71,11.92-1.44,2.38-2.4,4.95-3.37,7.52-.67,1.77-1.2,3.6-1.44,5.45-.47,3.63-.47,7.26.36,10.91.64,2.78,1.57,5.42,2.76,7.96,1.45,3.09,3.54,5.77,5.94,8.21.72.74,1.36,1.6,2.19,2.18,2.31,1.63,4.43,3.5,6.66,5.22,2.3,1.77,4.67,3.47,6.92,5.31,3.4,2.77,6.84,5.46,9.73,8.82,2.73,3.19,5.43,6.37,7.61,9.96.75,1.22,1.57,2.4,2.27,3.65,1.06,1.9,1.75,3.96,2.55,5.98,1.31,3.27,2.32,6.6,2.55,10.14-6.85,0-13.71-.02-20.56-.02-13.1,0-26.2-.03-39.3-.22-6.59-.1-13.19-.07-19.78-.08-11.19-.02-22.39-.03-33.58-.05-.56,0-1.12-.06-1.69-.09Z"/>
    <path class="cls-4" d="m758.49,2.17c1.13.02,2.25.07,3.38.07,9.06-.01,18.11-.04,27.17-.05.72,0,1.46-.07,2.23.22-.21.47-.57.69-.98.92-3.76,2.01-7.66,3.75-11.45,5.71-2.25,1.16-4.56,2.21-6.79,3.44-.33.09-.68.14-.98.29-1.16.57-2.8.48-3.14,2.22-2.08.47-3.76,1.73-5.52,2.82-3.47,2.15-6.34,5.09-9.6,7.51-.29.22-.46.52-.27.9-1.61.58-2.86,2.18-2.82,3.58-.2.41-.71.21-.98.51-2.73,2.96-4.57,6.32-4.75,10.44-.36,1.26-1.1,2.52,0,3.78-.17.9.3,1.67.51,2.48.61,2.4,1.95,4.29,4.13,5.53.11,1.66,1.6,3.37,3.21,3.67.12.17.21.37.36.51,2.7,2.53,6.03,4.27,8.73,6.8.48.29,1.03.5,1.42.89,2.41,2.37,5.43,3.64,8.51,4.81.85.58,1.49,1.44,2.45,1.89,2.48,1.16,4.84,2.56,7.42,3.51.58.22,1.1.47,1.73.28,3,1.6,6.11,2.83,9.59,2.86,1.55,1,3.21,1.75,4.98,2.29,2.55.78,5.12,1.44,7.8,1.55,1.38,1.53,3.21,1.42,5.02,1.35.62.33,1.31.42,1.96.62,3.18.98,6.31,2.09,9.31,3.53,1.7.19,3.16,1.28,4.9,1.29,1.34.54,2.67,1.1,4.02,1.62,2.73,1.05,5.46,2.07,8.19,3.11,1.04,1.15,2.46,1.34,3.87,1.53,1.73.95,3.57,1.68,5.27,2.71,2.32,1.41,4.98,2.17,7.25,3.69,1.08,1.07,2.42,1.61,3.88,1.91,1.53.6,2.66,1.8,4.02,2.65,2.82,1.77,5.53,3.68,8.27,5.56.09.16.16.35.41.26.25.06.53.05.65.35.95.98,1.66,2.3,3.27,2.35,1.48,1.63,2.73,3.46,4.72,4.59.46.26.83.82.81,1.47-.48.02-.95.06-1.43.06-25.25.07-50.51.1-75.76.37-11.76.13-23.52.1-35.28.15-.42-2.75-.93-5.49-1.85-8.13-.8-2.3-1.52-4.64-2.55-6.84-2.12-4.51-4.82-8.69-7.98-12.54-2.05-2.5-4.02-5.09-6.48-7.23-.89-.77-1.42-1.9-2.45-2.59-2.1-1.41-3.89-3.21-5.81-4.83-2.78-2.36-5.78-4.41-8.68-6.57-2.25-1.68-4.42-3.45-6.24-5.49-2.08-2.32-4.13-4.74-5.39-7.71-1.46-3.46-2.73-6.92-2.84-10.75-.08-3,.32-5.93,1.17-8.76.64-2.15,1.4-4.36,2.48-6.28,1.79-3.19,3.76-6.31,6.28-9.05,2.39-2.59,4.87-5.04,7.54-7.34,2.06-1.77,4.26-3.34,6.5-4.85,1.66-1.12,3.36-2.17,5.16-3.07,2.21-1.1,4.25-2.52,6.51-3.56,1.75-.81,3.47-1.74,4.95-3.03Z"/>
    <path class="cls-2" d="m356.91,2.88c14.02,0,28.03,0,42.05,0,1.92,0,2.26.54,1.8,2.37-.87,3.47-1.61,6.98-2.45,10.46-.59,2.44-1.13,4.87-1.4,7.37-.13,1.22-.82,1.85-2.29,1.83-8.64-.09-17.27-.01-25.91-.08-1.26,0-1.8.39-1.98,1.58-.24,1.57-.65,3.12-.92,4.69-.47,2.84-1.21,5.64-1.81,8.46-.72,3.37-1.67,6.69-2.16,10.12-.38,2.64-1.11,5.24-1.73,7.84-1.03,4.28-1.86,8.6-2.69,12.93-.64,3.34-1.53,6.63-2.3,9.95-.28,1.22-.65,2.43-.82,3.66-.73,5.1-2.14,10.05-3.27,15.06-.72,3.2-1.09,6.48-1.9,9.67-.68,2.67-1.31,5.35-1.92,8.04-.32,1.39-.6,2.78-.82,4.19-.5,3.2-1.29,6.34-2.06,9.48-.7,2.85-1.4,5.72-1.8,8.61-.31,2.23-1.03,4.36-1.35,6.58-.13.94-.67,1.42-1.79,1.41-7.85-.05-15.71-.04-23.56-.01-1.12,0-1.59-.28-1.37-1.5.83-4.4,1.72-8.79,2.72-13.15.7-3.01,1.5-6.01,1.95-9.09.43-2.94,1.27-5.81,1.92-8.71.61-2.73,1.35-5.45,1.77-8.21.39-2.61,1.04-5.14,1.67-7.68.64-2.59,1.17-5.21,1.7-7.82.87-4.26,1.67-8.54,2.72-12.77,1.02-4.09,1.77-8.26,2.54-12.41.49-2.66,1.34-5.26,1.87-7.92.47-2.37,1.05-4.71,1.47-7.09.62-3.55,1.54-7.05,2.29-10.59.45-2.11,1.16-4.16,1.37-6.32.25-2.55,1.04-4.98,1.53-7.48.26-1.32.24-1.5-1.17-1.5-6.86,0-13.71,0-20.57,0-2.73,0-5.47,0-8.2,0-1.49,0-1.79-.27-1.49-1.66.74-3.4,1.62-6.76,2.36-10.16.4-1.85.44-3.77.96-5.6.29-1.04.44-2.11.7-3.16.27-1.11,1.05-1.4,2.15-1.4,14.06.03,28.12.02,42.18.02Z"/>
    <path class="cls-8" d="m649.29,120.24c.56.03,1.12.09,1.69.09,11.19.02,22.39.03,33.58.05,6.59.01,13.19-.02,19.78.08,13.1.19,26.2.22,39.3.22,6.85,0,13.71.01,20.56.02.12,1.59.41,3.19.33,4.77-.19,3.64-.08,7.31-.95,10.92-.47,1.94-.99,3.85-1.65,5.72-.77,2.15-1.58,4.29-2.37,6.44-8.94,0-17.88,0-26.81,0-13.97-.02-27.95.07-41.92-.11-15.36-.2-30.71-.08-46.07-.23-12.84-.13-25.69-.06-38.53-.11-.6,0-1.2,0-1.83-.16.94-.5,2-.6,2.99-.8,4.93-1.04,9.62-2.69,14.25-4.68,3.11-1.34,5.98-3.08,8.77-4.9,5.54-3.62,10.49-8,14.71-13.14,1.25-1.52,2.4-3.16,4.18-4.16Z"/>
    <path class="cls-8" d="m768.18,120.79c11.76-.04,23.52-.02,35.28-.15,25.25-.27,50.51-.3,75.76-.37.48,0,.95-.04,1.43-.06,1.82,1.55,3.61,3.07,4.85,5.23.69,1.2,2,2.05,3.04,3.06.03,1.63.43,3.02,2.26,3.49.19,2.3.84,4.49,1.45,6.71.72,2.62.92,5.3-.18,7.92-.83,1.97-.8,1.98-2.95,1.98-41.38,0-82.76-.01-124.13-.02-.26,0-.52-.03-.78-.05-.01-1.32.43-2.55.85-3.75.89-2.49,1.59-5.04,2.36-7.57.76-2.51.78-5.12.8-7.71.03-2.9-.01-5.8-.02-8.7Z"/>
    <path class="cls-2" d="m522.49,103.63c-7.16,0-14.31,0-21.47,0-1.8,0-1.93-.3-1.55-2.11,1.06-5.07,2.65-10.03,3.21-15.2.03-.26.07-.52.14-.76q.98-3.46,4.63-3.46c13.45,0,26.89,0,40.34,0,.43,0,.88-.04,1.3.05.55.12.89.41.77,1.11-.72,4.3-1.75,8.53-2.69,12.78-.47,2.11-1.03,4.19-1.43,6.31-.19,1.02-.64,1.31-1.65,1.31-7.2-.04-14.4-.02-21.6-.02Z"/>
    <path class="cls-6" d="m768.18,120.79c.01,2.9.05,5.8.02,8.7-.02,2.59-.04,5.2-.8,7.71-.76,2.53-1.46,5.08-2.36,7.57-.43,1.2-.87,2.43-.85,3.75-1.55,0-3.09.01-4.64.02.79-2.15,1.61-4.28,2.37-6.44.67-1.87,1.19-3.78,1.65-5.72.87-3.61.76-7.27.95-10.92.08-1.58-.21-3.18-.33-4.77-.22-3.54-1.24-6.87-2.55-10.14-.81-2.01-1.5-4.08-2.55-5.98-.7-1.25-1.52-2.43-2.27-3.65-2.19-3.59-4.89-6.78-7.61-9.96-2.88-3.37-6.33-6.05-9.73-8.82-2.26-1.84-4.62-3.54-6.92-5.31-2.23-1.72-4.35-3.59-6.66-5.22-.83-.59-1.46-1.45-2.19-2.18-2.39-2.44-4.49-5.12-5.94-8.21-1.19-2.54-2.13-5.19-2.76-7.96-.83-3.64-.83-7.27-.36-10.91.24-1.85.77-3.68,1.44-5.45.97-2.58,1.93-5.14,3.37-7.52,2.68-4.44,5.95-8.41,9.71-11.92,2.13-1.98,4.46-3.79,6.81-5.56,2.9-2.19,6.06-3.95,9.01-6.05,1.64-1.17,3.51-2.04,4.98-3.5,1.22.11,2.4-.17,3.59-.35,1.66-.24,3.29.1,4.93.18-1.48,1.29-3.2,2.22-4.95,3.03-2.26,1.04-4.3,2.46-6.51,3.56-1.8.9-3.5,1.95-5.16,3.07-2.24,1.51-4.44,3.08-6.5,4.85-2.67,2.3-5.16,4.75-7.54,7.34-2.53,2.74-4.49,5.86-6.28,9.05-1.08,1.92-1.84,4.13-2.48,6.28-.85,2.84-1.25,5.76-1.17,8.76.1,3.83,1.37,7.29,2.84,10.75,1.26,2.97,3.32,5.39,5.39,7.71,1.83,2.04,3.99,3.81,6.24,5.49,2.9,2.16,5.9,4.21,8.68,6.57,1.91,1.62,3.71,3.43,5.81,4.83,1.03.69,1.56,1.82,2.45,2.59,2.47,2.14,4.43,4.72,6.48,7.23,3.16,3.86,5.86,8.03,7.98,12.54,1.03,2.19,1.75,4.54,2.55,6.84.92,2.64,1.43,5.37,1.85,8.13Z"/>
    <path class="cls-5" d="m875.12,114.14c-1.61-.05-2.32-1.37-3.27-2.35.33-.55.3-1.16.33-1.76.2-4.08-.14-8.14-.47-12.19-.31-3.74-1.04-7.45-1.78-11.15-.46-2.3-.84-4.62-1.46-6.89-.65-2.4-1.55-4.71-2.38-7.05-.54-1.51-.73-3.1-1.5-4.57-1.12-2.14-2.15-4.33-2.97-6.62-.64-1.79-1.86-3.32-2.7-5.05-1.56-3.23-3.83-6.05-5.64-9.15-.63-1.07-1.72-1.87-2.32-2.95-1.33-2.35-3.33-4.14-4.91-6.28-.74-1.01-1.75-1.81-2.58-2.76-3.23-3.68-6.77-7.03-10.61-10.05-1.56-1.23-2.87-2.75-4.62-3.73-1.88-1.06-3.38-2.69-5.26-3.71-3.02-1.63-5.67-3.85-8.84-5.22-1.7-.74-3.24-1.84-4.93-2.63-2.89-1.35-5.82-2.6-8.75-3.86-1.14-.49-1.61-1.61-.95-2.58.36-.52.95-.3,1.4-.12,1.26.52,2.45,1.28,3.75,1.62,3.54.91,6.39,3.28,9.8,4.45.83.28,1.61.74,2.36,1.19,4.43,2.72,8.94,5.33,13.08,8.48,2.17,1.65,4.24,3.46,6.39,5.12,1.55,1.2,2.68,2.76,4.19,3.95,3.44,2.72,6.23,6.12,8.96,9.5,1.63,2.03,3.55,3.85,4.84,6.22.78,1.44,1.95,2.79,2.92,4.19,1.61,2.32,3.17,4.69,4.47,7.2.96,1.85,1.91,3.71,2.92,5.54,1.11,1.99,1.73,4.18,2.71,6.23,1.11,2.33,1.73,4.88,2.57,7.31,1.09,3.16,1.78,6.41,2.83,9.57.63,1.9.61,4,.95,5.99.75,4.38.97,8.8,1.37,13.21.27,2.97.09,5.98.01,8.96-.02.66.13,1.28.09,1.93Z"/>
    <path class="cls-5" d="m767.92,14.99c.34-1.74,1.98-1.65,3.14-2.22.3-.15.65-.2.98-.29,1.39.3,2.75.7,4.19.78,2.81.15,5.48,1.05,8.17,1.8,3.61,1,7.28,1.87,10.71,3.34,3.7,1.59,7.55,2.89,11.04,4.98,2.96,1.78,5.98,3.47,8.93,5.28,2.39,1.46,4.33,3.5,6.8,4.83.86.46,1.44,1.43,2.26,2.01,2.19,1.57,4.02,3.54,6.03,5.3,1.07.93,1.92,2.21,2.97,3.21,1.77,1.68,3.33,3.56,4.75,5.5,1.26,1.72,2.88,3.16,3.92,5.05,1.2,2.2,2.99,4.07,4.09,6.27,1.22,2.47,2.98,4.72,3.82,7.29,1.25,3.85,3.52,7.31,4.25,11.33.31,1.68.85,3.27,1.49,4.84.41,1,.4,2.09.65,3.13,1.08,4.55,2,9.15,1.92,13.86-.01.66.47,1.1.49,1.7-1.46-.3-2.8-.85-3.88-1.91.51-.05.52-.41.42-.76-1.05-3.65-.69-7.52-1.75-11.17-.53-1.83-.75-3.74-1.43-5.54-.59-1.56-1.34-3.13-1.58-4.75-.62-4.19-3.17-7.59-4.52-11.47-.67-1.94-2-3.67-3.11-5.43-.35-.56-.32-1.22-.76-1.74-2.3-2.69-3.96-5.83-6.24-8.56-1.85-2.22-3.66-4.5-5.68-6.54-1.97-1.98-3.99-3.95-6.08-5.83-1.81-1.63-3.72-3.17-5.64-4.6-2.97-2.19-5.95-4.42-9.29-6.14-2.47-1.28-4.84-2.78-7.36-4.03-3.45-1.7-6.98-3.18-10.6-4.41-4.3-1.46-8.65-2.77-13.16-3.48-3.31-.52-6.62-1.08-9.93-1.62Z"/>
    <path class="cls-5" d="m890.79,131.98c-1.83-.47-2.23-1.86-2.26-3.49.55-.76.43-1.65.51-2.5.43-4.76,1.19-9.49,1.29-14.28.11-4.72.24-9.46-.15-14.16-.31-3.72-.75-7.45-1.28-11.15-.52-3.64-1.53-7.2-2.57-10.73-1.12-3.83-2-7.76-3.79-11.37-1.15-2.32-1.59-4.94-2.92-7.17-2.02-3.38-3.25-7.16-5.48-10.44-.99-1.46-1.81-3.06-2.75-4.58-1.6-2.59-3.41-5.03-5.13-7.53-2.14-3.09-4.67-5.87-7.11-8.7-1.49-1.74-3.27-3.31-4.83-5-3.52-3.82-7.53-7.04-11.49-10.35-1.83-1.53-3.87-2.8-5.61-4.44-.7-.66-.99-1.38-.42-2.07.52-.63,1.2-.36,1.92.12,5.1,3.4,9.69,7.43,14.23,11.51,2.29,2.05,4.44,4.27,6.55,6.5,1.72,1.82,3.34,3.74,4.92,5.67,1.63,1.99,3.2,4.03,4.74,6.1,2.91,3.9,5.52,8.02,7.91,12.24,1.35,2.39,2.98,4.7,3.9,7.27,1.52,4.23,3.83,8.12,5.04,12.5.61,2.22,1.56,4.41,2.32,6.61.67,1.97.98,4.06,1.46,6.09.47,2.02.98,4.03,1.41,6.06.22,1.05.4,2.11.58,3.16,1.48,8.7,1.49,17.47,1.29,26.26-.07,3.2-.31,6.4-.8,9.55-.43,2.78-.72,5.6-1.49,8.32Z"/>
    <path class="cls-5" d="m912.39,107.58c0,4.03.24,8.08-.08,12.08-.26,3.3-.69,6.61-1.32,9.89-.44,2.28-.96,4.56-1.28,6.88-.32,2.3-1.14,4.52-1.6,6.8-.18.92-.43,1.81-.66,2.71-.19.76-.54,1.39-1.48,1.16-.83-.21-.75-.86-.66-1.51.41-2.96,1.27-5.81,2.06-8.69.26-.94.38-1.93.53-2.88.36-2.28.64-4.59.95-6.88.55-4.18.92-8.37,1.3-12.56.38-4.19.19-8.4.15-12.6-.03-4.41-.73-8.77-1.16-13.14-.27-2.76-.52-5.57-1.21-8.27-.62-2.42-1.21-4.84-1.86-7.25-.51-1.87-.98-3.76-1.46-5.64-.72-2.86-1.64-5.67-2.82-8.38-.81-1.85-1.28-3.8-2.08-5.65-.73-1.69-1.68-3.27-2.32-5-.94-2.53-2.36-4.83-3.64-7.2-1.15-2.12-2.29-4.24-3.52-6.32-1.64-2.78-3.6-5.35-5.23-8.15-.83-1.43-2.15-2.54-3.08-3.94-2.23-3.35-5.03-6.27-7.61-9.35-2.22-2.65-4.75-5.04-7.14-7.54-.09-.09-.2-.16-.27-.26-.43-.62-1.06-1.23-.17-1.96.78-.64,1.24,0,1.72.47,1.63,1.59,3.26,3.18,4.85,4.81,2.26,2.3,4.22,4.88,6.43,7.21,1.73,1.83,3.09,3.93,4.64,5.88,2.32,2.93,4.26,6.16,6.39,9.25,2.15,3.12,3.99,6.44,5.62,9.83,1.58,3.28,3.56,6.37,4.71,9.91.69,2.15,1.64,4.29,2.69,6.32.79,1.53,1,3.22,1.58,4.81.82,2.24,1.4,4.57,2.29,6.79.35.88.58,1.84.72,2.68.38,2.36.96,4.66,1.44,6.99.7,3.43,1.31,6.87,1.95,10.31.05.25.07.51.1.77.63,5.85.86,11.72.54,17.61Z"/>
    <path class="cls-5" d="m933.93,107.41c0,2.99.2,6-.05,8.97-.4,4.85-.78,9.71-1.3,14.55-.22,2.01-.33,4.04-.66,6.03-.47,2.76-1,5.52-1.62,8.25-.12.54-.71,1.03-1.2,1.41-.6.46-1.18.19-1.13-.55.1-1.64.26-3.28.55-4.89.37-2.13.94-4.22,1.33-6.35.54-2.99.99-5.99,1.48-8.98.03-.17.05-.34.07-.51.64-7.42.94-14.85.77-22.29-.06-2.73,0-5.47-.29-8.18-.39-3.48-.54-7-1.32-10.45-.34-1.49-.33-3.08-.67-4.6-.46-2.12-.96-4.23-1.41-6.34-.17-.8-.21-1.63-.37-2.43-.48-2.46-1.37-4.83-1.95-7.26-.56-2.37-1.66-4.54-2.08-6.97-.31-1.81-1.16-3.54-1.97-5.23-.97-2.03-1.51-4.23-2.37-6.3-.83-1.98-2.01-3.82-2.77-5.82-1.05-2.78-2.87-5.15-4.06-7.81-1.11-2.46-2.82-4.51-3.95-6.87-1.08-2.24-2.56-4.16-3.9-6.19-1.77-2.7-3.44-5.5-5.5-7.97-1.39-1.67-2.5-3.56-4.02-5.12-.37-.38-.31-.72-.09-1.01.3-.4.7-.76,1.3-.42,1.1.63,1.9,1.56,2.67,2.55,1.75,2.25,3.6,4.52,5,6.92,1.43,2.43,3.37,4.52,4.56,7.14.57,1.25,1.54,2.53,2.34,3.77,1.62,2.52,3.18,5.1,4.43,7.81,1.59,3.43,3.63,6.64,4.86,10.27.71,2.08,1.79,4.04,2.69,6.07.84,1.88,1.3,3.89,2.11,5.78.95,2.23,1.5,4.63,2.36,6.9.52,1.37.54,2.83,1.02,4.21.79,2.28,1.46,4.62,1.92,6.99.56,2.9,1.2,5.79,1.56,8.74.68,5.52,1.05,11.07,1.63,16.59.33,3.17.06,6.41.06,9.61,0,0,0,0-.01,0Z"/>
    <path class="cls-5" d="m871.2,111.44c-.25.09-.32-.11-.41-.26.14.09.27.18.41.26Z"/>
    <path class="cls-6" d="m37.48,69.28c-3.13,0-6.16-.05-9.18.01-5.24.11-10.49.31-15.73.42-1.45.03-1.85-.45-1.86-1.86-.01-1.95-.02-3.9,0-5.85.01-1.39.4-1.77,1.78-1.77,11.8,0,23.61,0,35.41,0,1.35,0,1.75.41,1.77,1.8.02,1.95-.09,3.91.03,5.85.11,1.75-.57,2.87-2.16,3.5-2.86,1.14-5.41,2.91-8.22,4.14-4.51,1.98-8.9,4.17-13.31,6.36-1.05.52-2.03,1.2-3.19,1.89,1.26.52,2.39.25,3.47.19,7.19-.42,14.39-.37,21.59-.49,1.41-.02,1.75.34,1.76,1.76.01,1.95-.04,3.9.02,5.85.04,1.25-.6,1.7-1.72,1.75-.22,0-.43,0-.65,0-11.46,0-22.91,0-34.37,0-2.02,0-2.21-.19-2.21-2.25,0-1.99.04-3.99-.02-5.98-.03-1.03.47-1.71,1.27-2.17,2.27-1.29,4.67-2.37,6.98-3.57,4.59-2.4,9.41-4.33,13.96-6.82,1.45-.8,3.13-1.18,4.35-2.41.08-.08.13-.19.24-.34Z"/>
    <path class="cls-6" d="m26.04,100.77c4.17,0,8.33-.12,12.49.03,3.94.14,7.01,1.75,9.04,5.43.92,1.67,1.21,3.41,1.48,5.09.36,2.22.87,4.54.52,6.81-.48,3.17-.4,6.46-2.02,9.43-2.01,3.67-5.15,5.28-9.17,5.44-2.77.11-5.55.09-8.33.11-5.6.03-11.19.06-16.79.07-2.19,0-2.51-.34-2.51-2.56,0-1.43,0-2.86,0-4.29,0-2.13.46-2.58,2.61-2.52,8.24.23,16.48.02,24.72-.2,1.82-.05,3.51-.58,4.62-2.26.42-.63.32-1.32.5-1.97.61-2.3.42-4.63-.44-6.82-.65-1.67-2.26-2.12-3.87-2.33-2.63-.34-5.29-.2-7.93-.23-6.12-.05-12.23-.02-18.35-.01-1.18,0-1.86-.61-1.88-1.77-.03-1.86-.02-3.73,0-5.59.01-1.55.36-1.93,1.91-1.94,4.47-.02,8.94,0,13.41,0,0,.03,0,.06,0,.08Z"/>
    <path class="cls-6" d="m30.13,21.81c2.34,0,4.7-.17,7.02.04,4.5.4,7.96,2.56,10.39,6.46,1.16,1.86,1.54,3.84,1.67,5.92.17,2.81.18,5.64-.04,8.44-.24,2.92-1.64,5.31-3.7,7.42-2.65,2.71-5.95,3.64-9.52,3.78-3.9.15-7.81.13-11.7,0-4.3-.14-8.06-1.72-10.58-5.31-1.45-2.06-2.59-4.39-2.53-7.09.06-2.51.08-5.02.01-7.53-.04-1.68.47-3.25,1.26-4.59.61-1.03.92-2.29,1.87-3.12,1.83-1.6,3.74-3.03,6.08-3.86,1.37-.49,2.76-.6,4.17-.61,1.86,0,3.73,0,5.59,0,0,.02,0,.04,0,.06Zm.21,22.85s0-.02,0-.03c2.6,0,5.2-.03,7.8.01,1.9.03,3.19-.93,4.25-2.36,1.24-1.68,1.01-3.62,1.11-5.54.14-2.65-2.8-5.73-5.41-5.71-5.37.03-10.75-.03-16.12.1-1.76.04-3.16,1.11-4.13,2.6-1.05,1.6-.54,3.44-.68,5.18-.27,3.36,2.56,5.91,5.77,5.78,2.47-.1,4.94-.02,7.41-.02Z"/>
    <path class="cls-6" d="m30.05,170.34c-5.6,0-11.19,0-16.79,0-2.01,0-2.48-.4-2.49-2.36-.02-5.37-.1-10.75.07-16.12.1-3.23.92-6.41,2.78-9.1,1.01-1.46,2.72-2.38,4.42-2.89,3.44-1.01,6.75-.66,9.79,1.49,1.39.98,2.05,2.43,2.85,3.8,1.2,2.06,1.42,4.37,1.76,6.69.38,2.59.27,5.16.38,7.74.07,1.58.13,1.68,1.74,1.68,4.29,0,8.59,0,12.88,0,1.93,0,2.2.27,2.2,2.16,0,1.52,0,3.03,0,4.55,0,1.74-.62,2.35-2.41,2.35-5.73,0-11.45,0-17.18,0Zm-3.76-13.75h-.02c0-1.12.1-2.26-.02-3.37-.4-3.69-2.31-4.91-5.32-4.43-2.16.34-3.57,1.06-3.65,3.52-.09,2.81-.04,5.62-.07,8.43,0,.66.41.83.92.83,2.34,0,4.67,0,7.01-.03.81-.01,1.22-.41,1.17-1.31-.07-1.21-.02-2.42-.02-3.63Z"/>
    <path class="cls-7" d="m838.23,93.13c-.15-2.38-1.12-4.55-1.78-6.8-.59-2.01-1.5-3.89-2.05-5.91-.61-2.25-1.95-4.23-2.86-6.37-1.36-3.22-3.35-6.06-5.06-9.07-1.1-1.95-2.55-3.73-4.03-5.43-1.85-2.11-3.66-4.26-5.7-6.21-2.81-2.7-5.74-5.27-8.92-7.53-3.69-2.63-7.58-4.91-11.58-7.05-4.28-2.29-8.79-4.01-13.32-5.61-2.06-.73-4.37-1.09-6.57-1.58-3.12-.68-6.25-1.18-9.4-1.63-3.71-.53-7.43-.35-11.15-.38-2.03-.02-4.07-.02-6.1.26-.04-1.41,1.21-3,2.82-3.58,5.16-.14,10.33-.16,15.44.55,3.35.47,6.68,1.16,10.01,1.84,2.97.61,5.84,1.42,8.68,2.42,4.2,1.47,8.23,3.3,12.24,5.24,2.74,1.32,5.02,3.31,7.79,4.56,1.54.7,2.84,1.98,4.12,3.15.56.51,1.25.69,1.79,1.18,1.83,1.64,3.83,3.1,5.51,4.87,1.61,1.7,3.36,3.26,4.86,5.12,1.46,1.81,2.96,3.61,4.43,5.44,1.86,2.33,3.2,4.97,4.86,7.41,1.64,2.43,2.46,5.24,3.91,7.74,1.83,3.17,2.41,6.78,3.73,10.13.99,2.52,1.38,5.28,2.18,7.89.09.28.02.6.03.9-1.42-.2-2.84-.38-3.87-1.53Z"/>
    <path class="cls-7" d="m821.12,87.11c1.17-.95-.04-1.81-.34-2.41-1.72-3.46-3.3-6.98-5.36-10.28-3.45-5.51-7.62-10.35-12.44-14.66-3.01-2.69-6.33-5.04-9.85-6.97-2.63-1.44-5.17-3.17-8.04-4.06-2.93-.91-5.7-2.23-8.66-3.05-7.79-2.15-15.72-2.68-23.73-2.25-2.91.15-5.81.73-8.71,1.11-1.1-1.26-.37-2.52,0-3.78,5.12-.45,10.24-1.06,15.38-1.08,2.07,0,4.17.07,6.21.38,3.45.52,6.96.61,10.32,1.71,2.48.81,4.93,1.77,7.42,2.45,3.88,1.07,7.27,3.14,10.73,4.96,3.25,1.71,6.54,3.58,9.21,6.27.52.53,1.3.8,1.84,1.31,2.31,2.2,4.65,4.35,6.77,6.78,2.16,2.48,4.06,5.09,5.89,7.79,2.49,3.7,4.58,7.57,6.22,11.73.57,1.45,1.07,2.97,1.91,4.33.16.26.09.67.13,1.01-1.74-.01-3.2-1.1-4.9-1.29Z"/>
    <path class="cls-7" d="m804.82,81.6c-1.27-1.72-2.45-3.52-3.83-5.14-1.44-1.68-2.75-3.47-4.56-4.83-1.06-.8-1.77-2.01-2.84-2.86-4.22-3.39-8.69-6.38-13.7-8.44-2.37-.97-4.88-1.64-7.3-2.48-5.51-1.91-11.23-1.62-16.89-1.99-1.28-.08-2.58.23-3.87.35-1.61-.3-3.11-2-3.21-3.67,5.14-.57,10.29-.48,15.44-.24,5.04.24,9.78,1.79,14.53,3.34,4.34,1.42,8.28,3.62,12.09,6.03,2.38,1.51,4.6,3.28,6.74,5.15,1.88,1.64,3.64,3.43,5.19,5.32,1.7,2.09,3.59,4.08,4.8,6.6.68,1.42,1.86,2.64,2.42,4.18-1.81.07-3.64.18-5.02-1.35Z"/>
    <path class="cls-7" d="m760.93,63.53c3.43.23,6.87.39,10.21,1.37,2.79.82,5.43,2,8.09,3.12,2.02.85,3.74,2.3,5.62,3.41,2.27,1.34,3.91,3.36,6.02,4.84.55.39.55,1.17,1.17,1.49-3.47-.02-6.58-1.26-9.59-2.86-3.45-2.74-7.48-4.3-11.6-5.68-3.08-1.17-6.1-2.44-8.51-4.81-.39-.38-.94-.59-1.42-.89Z"/>
    <path class="cls-3" d="m30.34,44.66c-2.47,0-4.94-.08-7.41.02-3.2.13-6.04-2.42-5.77-5.78.14-1.74-.37-3.57.68-5.18.97-1.49,2.38-2.55,4.13-2.6,5.37-.13,10.75-.07,16.12-.1,2.61-.02,5.55,3.07,5.41,5.71-.1,1.92.13,3.86-1.11,5.54-1.06,1.44-2.35,2.39-4.25,2.36-2.6-.05-5.2-.01-7.8-.01,0,.01,0,.02,0,.03Z"/>
    <path class="cls-3" d="m26.29,156.59c0,1.21-.05,2.42.02,3.63.05.9-.36,1.3-1.17,1.31-2.34.03-4.67.04-7.01.03-.51,0-.93-.17-.92-.83.03-2.81-.02-5.62.07-8.43.08-2.46,1.5-3.17,3.65-3.52,3.01-.48,4.93.74,5.32,4.43.12,1.11.02,2.25.02,3.37h.02Z"/>
    <text class="cls-9" transform="translate(66.3 185.99)"><tspan x="0" y="0">DIRECCIÓN REGIONAL DE T</tspan><tspan class="cls-12" x="382.97" y="0">R</tspan><tspan class="cls-10" x="402.95" y="0">ANSPORTES Y COMUNI</tspan><tspan class="cls-11" x="723.58" y="0">C</tspan><tspan class="cls-10" x="742.87" y="0">ACIONES</tspan></text>
  </g>
</svg>